<?xml version="1.0" standalone="no"?>
<!DOCTYPE svg PUBLIC "-//W3C//DTD SVG 20010904//EN"
 "http://www.w3.org/TR/2001/REC-SVG-20010904/DTD/svg10.dtd">
<svg version="1.0" xmlns="http://www.w3.org/2000/svg"
 width="852.000000pt" height="852.000000pt" viewBox="0 0 852.000000 852.000000"
 preserveAspectRatio="xMidYMid meet">
<metadata>
Created by potrace 1.14, written by Peter Selinger 2001-2017
</metadata>
<g transform="translate(0.000000,852.000000) scale(0.100000,-0.100000)"
fill="#000000" stroke="none">
<path d="M3487 8514 c-1 -1 -67 -4 -147 -8 -80 -3 -161 -8 -180 -11 -19 -3
-57 -7 -85 -10 -284 -32 -609 -118 -894 -235 -927 -381 -1661 -1163 -1980
-2110 -62 -183 -122 -429 -145 -590 -36 -258 -38 -312 -38 -1280 0 -822 3
-1014 18 -1140 9 -74 33 -243 39 -270 37 -184 38 -188 60 -265 134 -476 328
-864 618 -1237 425 -547 1020 -966 1667 -1176 113 -36 188 -58 230 -67 8 -2
53 -12 100 -23 47 -11 101 -23 120 -26 19 -3 44 -8 55 -10 49 -9 135 -20 235
-30 36 -4 92 -9 125 -12 79 -8 1858 -8 1955 0 41 3 95 8 120 11 25 2 70 7 100
10 47 5 130 18 240 39 14 2 59 12 100 21 41 9 82 18 91 20 39 8 173 50 279 86
416 144 798 364 1145 663 87 74 283 271 350 350 28 32 55 64 61 70 18 19 159
209 201 271 140 208 253 425 353 675 48 121 130 382 146 465 2 11 6 31 9 45
15 62 46 240 51 285 3 28 7 56 10 63 15 46 19 314 19 1167 0 849 -4 1083 -19
1175 -3 14 -7 44 -10 68 -36 277 -136 641 -244 887 -155 351 -337 641 -592
940 -51 60 -277 283 -340 336 -36 30 -67 57 -70 60 -3 3 -52 41 -110 85 -457
348 -1037 592 -1590 668 -258 36 -324 38 -1238 40 -447 0 -814 0 -815 0z
m1793 -388 c25 -3 68 -8 95 -11 28 -3 68 -8 90 -11 56 -7 294 -53 330 -64 174
-53 337 -106 370 -120 22 -9 85 -37 140 -61 55 -23 111 -50 125 -59 14 -9 33
-20 44 -24 10 -3 62 -32 115 -63 553 -324 990 -801 1260 -1374 62 -133 142
-346 176 -472 25 -93 29 -110 40 -159 2 -13 9 -43 15 -68 26 -117 43 -247 56
-405 8 -115 8 -1807 0 -1940 -8 -121 -16 -186 -35 -305 -17 -104 -21 -119 -51
-243 -101 -402 -281 -781 -529 -1110 -46 -62 -87 -114 -90 -117 -3 -3 -31 -34
-61 -70 -191 -227 -500 -483 -775 -642 -252 -145 -575 -279 -780 -324 -5 -1
-30 -7 -55 -14 -25 -7 -56 -14 -70 -17 -14 -2 -56 -10 -95 -18 -38 -8 -92 -17
-120 -20 -27 -4 -61 -9 -75 -11 -90 -15 -319 -19 -1130 -19 -503 0 -955 3
-1005 7 -115 10 -248 26 -303 39 -23 5 -59 12 -80 15 -62 10 -262 63 -357 95
-839 286 -1511 897 -1868 1700 -71 160 -150 392 -182 537 -30 135 -42 197 -50
263 -3 24 -7 51 -10 59 -16 58 -20 301 -20 1150 0 871 4 1068 21 1180 16 100
57 312 70 360 46 166 80 266 147 435 39 98 195 389 269 500 435 658 1084 1121
1843 1315 44 11 91 23 105 25 34 7 70 14 100 20 71 15 179 28 335 41 44 4 81
7 82 8 6 4 1876 -3 1913 -8z"/>
<path d="M3505 7073 c-206 -171 -319 -357 -359 -589 -17 -96 -6 -254 24 -352
l18 -60 -48 28 c-156 92 -309 131 -495 125 -245 -7 -450 -104 -665 -314 l-100
-98 43 -61 c160 -229 413 -381 682 -408 55 -6 63 -9 56 -23 -29 -53 -95 -290
-106 -376 -26 -205 -26 -336 -1 -512 38 -261 211 -641 436 -957 73 -101 58
-101 158 -5 48 47 111 107 140 134 28 27 52 52 52 56 0 3 -14 22 -30 40 -53
58 -164 230 -217 334 -177 345 -217 625 -137 955 107 439 423 794 850 956 258
97 551 109 821 33 446 -125 808 -484 937 -930 13 -48 28 -106 31 -130 4 -24 9
-47 12 -52 13 -21 11 -297 -3 -376 -45 -252 -198 -577 -365 -773 l-49 -56 63
-60 c146 -141 222 -212 227 -212 7 1 159 221 210 305 62 100 153 285 194 390
119 311 145 612 81 936 -13 65 -68 250 -89 300 -6 13 3 17 56 23 143 15 296
70 420 152 89 59 214 181 263 259 l37 57 -34 35 c-128 137 -237 222 -358 284
-36 18 -65 31 -66 28 0 -2 -7 1 -15 8 -8 6 -53 22 -99 35 -71 19 -108 23 -225
22 -165 -1 -244 -19 -385 -86 -69 -33 -89 -40 -85 -27 30 93 45 270 30 354 -3
17 -7 45 -11 63 -14 87 -65 210 -126 305 -40 64 -67 96 -138 163 -86 81 -120
107 -120 92 -5 -129 -10 -242 -14 -278 -15 -130 -82 -303 -161 -410 -52 -70
-54 -71 -111 -54 -68 21 -170 42 -238 49 -31 4 -67 8 -79 11 -47 10 -298 3
-382 -10 -91 -14 -114 -19 -188 -37 -92 -23 -88 -25 -151 70 -56 84 -90 159
-115 252 -26 98 -30 125 -36 281 -3 73 -7 133 -8 134 -1 1 -15 -9 -32 -23z
m-107 -449 c-7 -6 40 -132 73 -196 12 -24 39 -69 61 -102 21 -32 37 -60 36
-61 -2 -1 -32 -17 -68 -35 -35 -18 -81 -43 -102 -56 l-37 -23 -17 75 c-22 99
-15 233 16 332 12 39 27 72 33 72 6 0 8 -3 5 -6z m1795 -46 c42 -128 47 -233
18 -365 l-16 -73 -30 18 c-16 10 -61 35 -99 55 -37 21 -72 40 -77 42 -4 3 12
34 35 68 49 70 110 196 128 263 7 24 15 44 18 44 3 0 14 -24 23 -52z m-2328
-568 c57 -18 178 -72 194 -86 2 -2 -23 -32 -56 -67 -73 -78 -135 -158 -198
-256 l-47 -73 -87 6 c-47 3 -107 10 -133 15 -118 25 -284 118 -367 205 l-35
36 30 31 c43 45 183 136 256 165 34 15 90 32 123 39 86 18 235 11 320 -15z
m3185 0 c111 -37 223 -102 315 -183 l40 -35 -36 -35 c-145 -141 -329 -220
-524 -225 l-70 -2 -55 86 c-49 77 -170 229 -221 277 -10 10 -19 22 -19 26 0
10 106 62 165 81 132 43 292 47 405 10z"/>
<path d="M4175 5572 c-248 -24 -499 -167 -653 -373 -204 -273 -236 -656 -81
-963 141 -279 409 -468 714 -504 285 -33 553 59 763 261 65 63 153 186 189
267 28 62 70 204 78 265 7 55 8 231 2 243 -3 4 -8 28 -11 53 -3 26 -16 75 -27
110 -104 318 -371 558 -693 626 -66 13 -216 22 -281 15z m230 -398 c138 -34
278 -146 345 -276 19 -37 31 -70 28 -74 -6 -5 -931 -9 -1016 -5 -10 1 -10 6
-2 21 6 11 8 20 4 20 -3 0 -2 6 4 13 5 6 19 28 30 49 79 142 240 249 397 265
33 3 61 7 63 8 6 5 90 -7 147 -21z m372 -697 c14 -15 -62 -142 -121 -201 -111
-114 -248 -169 -407 -165 -167 4 -314 83 -427 229 -28 36 -71 134 -62 140 12
7 1009 4 1017 -3z"/>
<path d="M3493 3415 c-37 -35 -110 -104 -162 -154 l-94 -89 32 -39 c55 -64
302 -313 397 -399 180 -165 351 -304 531 -432 l72 -51 118 86 c96 70 313 241
333 263 3 3 43 39 90 80 128 113 260 242 381 372 l109 117 -88 84 c-48 46
-121 115 -162 155 l-75 71 -44 -26 c-129 -76 -268 -129 -414 -160 -121 -25
-422 -24 -509 3 -9 3 -26 7 -39 9 -90 18 -248 80 -346 137 l-61 36 -69 -63z"/>
<path d="M5184 2685 c-21 -17 -81 -64 -132 -103 -51 -39 -89 -73 -85 -75 5 -2
53 -19 108 -37 221 -72 467 -218 507 -301 22 -45 11 -78 -46 -134 -67 -65
-276 -169 -403 -200 -10 -3 -54 -14 -98 -25 -44 -11 -96 -23 -115 -26 -19 -3
-53 -9 -75 -14 -22 -5 -69 -12 -105 -16 -36 -3 -68 -8 -71 -10 -13 -7 -236
-18 -389 -18 -469 -1 -865 73 -1132 211 -143 73 -217 151 -203 213 18 83 283
246 523 322 56 17 101 35 100 39 -2 4 -59 51 -128 104 l-124 98 -46 -12 c-78
-21 -257 -101 -345 -155 -47 -28 -111 -76 -143 -107 -52 -52 -120 -149 -126
-181 -1 -7 -6 -24 -10 -37 -15 -44 -13 -125 4 -187 50 -183 222 -330 515 -439
55 -20 106 -39 115 -41 8 -2 66 -17 129 -33 63 -17 126 -32 140 -35 83 -14
223 -36 266 -41 28 -4 61 -8 74 -10 39 -7 309 -19 411 -18 93 0 297 11 342 18
13 2 50 6 83 10 110 11 328 54 455 89 362 99 595 248 684 436 28 59 31 74 31
161 0 89 -2 101 -34 163 -18 37 -56 92 -83 122 -57 61 -181 148 -279 193 -70
32 -85 38 -200 81 l-75 28 -40 -33z"/>
</g>
</svg>
